<svg width="1520" height="600" viewBox="0 0 1520 600" fill="none" xmlns="http://www.w3.org/2000/svg">
<rect x="1" y="1" width="1518" height="598" rx="99" fill="#1A1A1A" stroke="white" stroke-width="2"/>
<path d="M647.929 267.909V329H638.712V267.909H647.929ZM660.636 329V283.182H669.197V290.639H669.764C670.719 288.114 672.28 286.145 674.447 284.733C676.615 283.301 679.21 282.585 682.233 282.585C685.295 282.585 687.861 283.301 689.929 284.733C692.017 286.165 693.558 288.134 694.553 290.639H695.03C696.124 288.193 697.864 286.244 700.25 284.793C702.636 283.321 705.48 282.585 708.781 282.585C712.938 282.585 716.328 283.888 718.953 286.493C721.598 289.098 722.92 293.026 722.92 298.276V329H714.001V299.111C714.001 296.009 713.156 293.761 711.466 292.369C709.776 290.977 707.757 290.281 705.411 290.281C702.507 290.281 700.25 291.176 698.639 292.966C697.028 294.736 696.223 297.013 696.223 299.797V329H687.334V298.544C687.334 296.058 686.558 294.06 685.007 292.548C683.456 291.037 681.438 290.281 678.952 290.281C677.261 290.281 675.7 290.729 674.268 291.624C672.857 292.499 671.713 293.722 670.838 295.293C669.983 296.864 669.555 298.683 669.555 300.751V329H660.636ZM748.208 330.014C745.305 330.014 742.68 329.477 740.333 328.403C737.987 327.31 736.127 325.729 734.755 323.661C733.403 321.592 732.727 319.057 732.727 316.054C732.727 313.469 733.224 311.341 734.218 309.67C735.213 308 736.555 306.678 738.245 305.703C739.936 304.729 741.825 303.993 743.913 303.496C746.001 302.999 748.129 302.621 750.297 302.362C753.041 302.044 755.268 301.786 756.978 301.587C758.689 301.368 759.931 301.02 760.707 300.543C761.483 300.065 761.87 299.29 761.87 298.216V298.007C761.87 295.402 761.135 293.384 759.663 291.952C758.211 290.52 756.044 289.804 753.16 289.804C750.157 289.804 747.791 290.47 746.061 291.803C744.35 293.115 743.167 294.577 742.511 296.188L734.129 294.278C735.123 291.494 736.575 289.247 738.484 287.537C740.413 285.807 742.63 284.554 745.136 283.778C747.642 282.983 750.277 282.585 753.041 282.585C754.87 282.585 756.809 282.804 758.858 283.241C760.926 283.659 762.855 284.435 764.645 285.568C766.454 286.702 767.936 288.322 769.089 290.43C770.243 292.518 770.819 295.233 770.819 298.574V329H762.109V322.736H761.751C761.174 323.889 760.309 325.023 759.156 326.136C758.002 327.25 756.521 328.175 754.711 328.911C752.902 329.646 750.734 330.014 748.208 330.014ZM750.147 322.855C752.613 322.855 754.721 322.368 756.471 321.393C758.241 320.419 759.583 319.146 760.498 317.575C761.433 315.984 761.9 314.284 761.9 312.474V306.568C761.582 306.886 760.966 307.185 760.051 307.463C759.156 307.722 758.132 307.95 756.978 308.149C755.825 308.328 754.701 308.497 753.608 308.656C752.514 308.795 751.599 308.915 750.863 309.014C749.133 309.233 747.552 309.601 746.12 310.118C744.708 310.635 743.575 311.381 742.72 312.355C741.885 313.31 741.467 314.582 741.467 316.173C741.467 318.381 742.282 320.051 743.913 321.185C745.544 322.298 747.622 322.855 750.147 322.855ZM801.909 347.136C798.27 347.136 795.138 346.659 792.513 345.705C789.908 344.75 787.78 343.487 786.129 341.916C784.479 340.345 783.246 338.625 782.43 336.756L790.097 333.594C790.634 334.469 791.349 335.393 792.244 336.368C793.159 337.362 794.392 338.207 795.943 338.903C797.514 339.599 799.533 339.947 801.999 339.947C805.379 339.947 808.173 339.122 810.381 337.472C812.588 335.841 813.692 333.236 813.692 329.656V320.648H813.125C812.588 321.622 811.813 322.706 810.798 323.899C809.804 325.092 808.432 326.126 806.682 327.001C804.932 327.876 802.655 328.314 799.851 328.314C796.232 328.314 792.97 327.469 790.067 325.778C787.183 324.068 784.896 321.553 783.206 318.232C781.536 314.891 780.7 310.784 780.7 305.912C780.7 301.04 781.526 296.864 783.176 293.384C784.847 289.903 787.134 287.239 790.037 285.389C792.94 283.52 796.232 282.585 799.911 282.585C802.754 282.585 805.051 283.062 806.801 284.017C808.551 284.952 809.913 286.045 810.888 287.298C811.882 288.551 812.648 289.655 813.185 290.609H813.841V283.182H822.581V330.014C822.581 333.952 821.666 337.183 819.837 339.709C818.007 342.234 815.531 344.104 812.409 345.317C809.307 346.53 805.807 347.136 801.909 347.136ZM801.82 320.916C804.385 320.916 806.553 320.32 808.322 319.126C810.112 317.913 811.464 316.183 812.379 313.936C813.314 311.669 813.781 308.955 813.781 305.793C813.781 302.71 813.324 299.996 812.409 297.649C811.494 295.303 810.152 293.473 808.382 292.161C806.612 290.828 804.425 290.162 801.82 290.162C799.135 290.162 796.898 290.858 795.108 292.25C793.318 293.622 791.966 295.491 791.051 297.858C790.156 300.224 789.709 302.869 789.709 305.793C789.709 308.795 790.166 311.43 791.081 313.697C791.996 315.964 793.348 317.734 795.138 319.007C796.947 320.28 799.175 320.916 801.82 320.916ZM854.29 329.925C849.776 329.925 845.888 328.96 842.626 327.031C839.385 325.082 836.879 322.348 835.109 318.828C833.359 315.288 832.484 311.142 832.484 306.389C832.484 301.696 833.359 297.56 835.109 293.98C836.879 290.401 839.345 287.607 842.507 285.598C845.689 283.589 849.408 282.585 853.663 282.585C856.249 282.585 858.754 283.013 861.18 283.868C863.607 284.723 865.784 286.065 867.713 287.895C869.642 289.724 871.163 292.101 872.277 295.024C873.391 297.928 873.947 301.457 873.947 305.614V308.776H837.526V302.094H865.207C865.207 299.747 864.73 297.669 863.776 295.859C862.821 294.03 861.479 292.588 859.749 291.534C858.038 290.48 856.03 289.953 853.723 289.953C851.217 289.953 849.03 290.57 847.161 291.803C845.311 293.016 843.879 294.607 842.865 296.575C841.871 298.524 841.374 300.642 841.374 302.929V308.149C841.374 311.212 841.911 313.817 842.984 315.964C844.078 318.112 845.599 319.753 847.548 320.886C849.497 322 851.774 322.557 854.379 322.557C856.07 322.557 857.611 322.318 859.003 321.841C860.395 321.344 861.598 320.608 862.612 319.634C863.626 318.659 864.402 317.456 864.939 316.024L873.381 317.545C872.705 320.031 871.491 322.209 869.741 324.078C868.011 325.928 865.834 327.369 863.209 328.403C860.604 329.418 857.631 329.925 854.29 329.925Z" fill="white"/>
</svg>
