<svg width="96" height="96" viewBox="0 0 96 96" fill="none" xmlns="http://www.w3.org/2000/svg">
<g clip-path="url(#clip0_30_31)">
<path d="M76 12H20C15.6 12 12 15.6 12 20V48C12 52.4 15.6 56 20 56H76C80.4 56 84 52.4 84 48V20C84 15.6 80.4 12 76 12ZM76 36H60C60 42.48 54.48 48 48 48C41.52 48 36 42.48 36 36H20V20H76V36ZM60 64H84V76C84 80.4 80.4 84 76 84H20C15.6 84 12 80.4 12 76V64H36C36 70.64 41.36 76 48 76C54.64 76 60 70.64 60 64Z" fill="white"/>
</g>
<defs>
<clipPath id="clip0_30_31">
<rect width="96" height="96" fill="white"/>
</clipPath>
</defs>
</svg>
